<?xml version="1.0" standalone="no"?><!DOCTYPE svg PUBLIC "-//W3C//DTD SVG 1.1//EN" "http://www.w3.org/Graphics/SVG/1.1/DTD/svg11.dtd"><svg class="icon" height="512" viewBox="0 0 1024 1024" version="1.1" xmlns="http://www.w3.org/2000/svg"><path d="M633.538077 235.235582c-3.484358-6.075369-6.427386-12.543687-10.766204-18.050098-47.167253-59.864436-90.630137-91.950202-116.366288-154.519236-14.461363 54.833863-53.918004 62.812581-89.989547 110.040209-57.666374 75.505671-126.805034 226.951919-108.447944 369.096313 11.147898 86.322018 42.651402 153.170518 85.374436 210.911594 25.826202 34.903951 50.337455 58.802244 76.644611 79.916121 32.871665 26.38288 35.497469 37.708833 36.419467 121.824602l23.074532 6.877641h2.307555c-0.344854-31.901571-8.205892-72.082712 2.307556-100.870361 11.880585-32.530904 59.738569-53.846372 80.759325-80.238463 29.012777-36.424584 57.384965-79.095429 73.837682-126.08872 58.163701-166.131715 11.030218-303.495222-55.155181-418.899602z" fill="#2aa515" /></svg>